<?xml version="1.0" encoding="UTF-8"?>
<!-- Generator: visioncortex VTracer 0.6.4 -->
<svg version="1.1" xmlns="http://www.w3.org/2000/svg" width="256" height="256">
<path d="M0 0 C84.48 0 168.96 0 256 0 C256 84.48 256 168.96 256 256 C171.52 256 87.04 256 0 256 C0 171.52 0 87.04 0 0 Z " fill="#282828" transform="translate(0,0)"/>
<path d="M0 0 C84.48 0 168.96 0 256 0 C256 84.48 256 168.96 256 256 C171.52 256 87.04 256 0 256 C0 171.52 0 87.04 0 0 Z M78.31 34.97 C77.67 35.28 77.03 35.6 76.37 35.92 C74.27 36.96 72.17 38.02 70.08 39.08 C68.62 39.81 67.15 40.54 65.69 41.27 C62.63 42.8 59.57 44.34 56.51 45.88 C52.6 47.86 48.68 49.81 44.75 51.76 C41.73 53.27 38.71 54.78 35.7 56.3 C34.25 57.02 32.8 57.75 31.36 58.47 C29.33 59.47 27.32 60.49 25.3 61.52 C24.16 62.09 23.01 62.67 21.83 63.27 C19.05 64.97 17.6 66.2 16 69 C15.74 71.82 15.74 71.82 16.12 75.04 C16.2 76 16.2 76 16.29 76.97 C16.5 79.32 16.75 81.66 17 84 C17.1 84.97 17.21 85.94 17.31 86.94 C18.32 96.3 19.4 105.65 20.49 115 C20.91 118.58 21.32 122.16 21.72 125.74 C21.91 127.36 21.91 127.36 22.11 129.02 C23.34 139.83 22.95 149.83 21.67 160.63 C21.43 162.71 21.19 164.78 20.96 166.86 C20.29 172.75 19.6 178.64 18.92 184.53 C18.49 188.15 18.08 191.77 17.67 195.4 C17.51 196.76 17.35 198.13 17.19 199.5 C16.31 206.87 15.63 213.67 17 221 C18.54 223.22 18.54 223.22 21 224 C25.85 224.41 28.8 223.46 33.09 221.23 C33.67 220.94 34.25 220.64 34.84 220.34 C36.08 219.7 37.32 219.06 38.56 218.41 C40.52 217.39 42.49 216.38 44.47 215.38 C49.36 212.88 54.24 210.36 59.12 207.84 C63.25 205.7 67.39 203.58 71.53 201.47 C73.47 200.48 75.4 199.47 77.33 198.46 C78.52 197.85 79.71 197.25 80.91 196.64 C81.94 196.11 82.98 195.57 84.04 195.02 C89.84 193.02 94.79 195.52 100.2 197.78 C101.24 198.2 101.24 198.2 102.3 198.63 C103.79 199.24 105.29 199.86 106.79 200.48 C109.15 201.45 111.53 202.42 113.9 203.39 C120.64 206.13 127.38 208.9 134.12 211.66 C138.24 213.36 142.37 215.05 146.51 216.73 C148.08 217.37 149.65 218.01 151.21 218.66 C153.41 219.57 155.61 220.46 157.8 221.35 C158.45 221.62 159.09 221.89 159.75 222.17 C165.07 224.3 168.81 224.83 174.21 222.78 C175.36 222.21 176.51 221.64 177.69 221.05 C178.33 220.74 178.97 220.42 179.63 220.1 C181.73 219.06 183.83 218.01 185.92 216.96 C187.38 216.23 188.85 215.5 190.31 214.77 C193.37 213.25 196.43 211.72 199.49 210.18 C203.4 208.21 207.32 206.26 211.25 204.32 C214.27 202.82 217.29 201.31 220.3 199.8 C221.75 199.07 223.2 198.35 224.64 197.64 C226.67 196.64 228.68 195.62 230.7 194.6 C232.42 193.73 232.42 193.73 234.17 192.85 C237.24 190.84 238.49 189.32 240 186 C240.26 183.12 240.26 183.12 239.88 179.93 C239.8 178.98 239.8 178.98 239.71 178.02 C239.5 175.67 239.25 173.34 239 171 C238.9 170.02 238.79 169.03 238.69 168.02 C237.67 158.48 236.6 148.96 235.51 139.43 C235.09 135.78 234.69 132.13 234.28 128.48 C234.15 127.38 234.02 126.27 233.89 125.13 C232.62 113.69 233.17 103.13 234.53 91.71 C234.69 90.35 234.85 88.99 235 87.63 C235.41 84.08 235.83 80.53 236.24 76.98 C236.91 71.29 237.58 65.6 238.23 59.91 C238.46 57.94 238.7 55.96 238.93 53.99 C240.83 43.55 240.83 43.55 237.88 34.06 C234.42 31.59 233.16 31.61 229 32 C225.96 33.11 225.96 33.11 222.91 34.77 C222.04 35.21 222.04 35.21 221.16 35.66 C219.92 36.3 218.68 36.94 217.44 37.59 C215.48 38.61 213.51 39.62 211.53 40.62 C206.64 43.12 201.76 45.64 196.88 48.16 C192.75 50.3 188.61 52.42 184.47 54.53 C182.53 55.52 180.6 56.53 178.67 57.54 C177.48 58.15 176.29 58.75 175.09 59.36 C174.06 59.89 173.02 60.43 171.96 60.98 C166.73 62.78 162.49 60.97 157.54 58.98 C156.49 58.56 155.45 58.14 154.37 57.71 C153.25 57.26 152.13 56.8 150.98 56.34 C149.81 55.87 148.64 55.4 147.43 54.91 C144.31 53.66 141.2 52.4 138.08 51.14 C134.97 49.88 131.86 48.64 128.75 47.39 C126.33 46.41 123.9 45.44 121.48 44.46 C120.3 43.99 119.12 43.51 117.91 43.02 C112.81 40.97 107.72 38.89 102.66 36.73 C101.88 36.4 101.1 36.06 100.29 35.72 C98.9 35.13 97.52 34.52 96.14 33.91 C89.27 30.98 84.9 31.68 78.31 34.97 Z " fill="#FEFEFE" transform="translate(0,0)"/>
<path d="M0 0 C4.07 0.68 7.68 1.92 11.52 3.42 C12.47 3.79 12.47 3.79 13.44 4.17 C15.52 4.97 17.59 5.79 19.67 6.61 C20.38 6.89 21.09 7.17 21.83 7.46 C25.58 8.94 29.34 10.42 33.09 11.91 C36.97 13.45 40.86 14.96 44.75 16.47 C47.74 17.64 50.73 18.82 53.71 20.01 C55.14 20.57 56.57 21.13 58.01 21.69 C60.01 22.46 62.01 23.26 64 24.06 C65.71 24.73 65.71 24.73 67.45 25.42 C70 27 70 27 70.9 29.37 C71 32.01 70.9 34.45 70.58 37.08 C70.46 38.06 70.34 39.05 70.22 40.06 C70.09 41.11 69.96 42.17 69.82 43.25 C69.69 44.34 69.56 45.43 69.42 46.56 C69 50.04 68.56 53.52 68.12 57 C67.84 59.34 67.55 61.69 67.27 64.03 C67 66.27 66.72 68.51 66.45 70.75 C66.32 71.8 66.19 72.85 66.05 73.94 C65.93 74.92 65.81 75.91 65.68 76.92 C65.52 78.21 65.52 78.21 65.35 79.53 C64.99 82.05 64.52 84.52 64 87 C62.86 86.45 61.72 85.91 60.55 85.34 C58.95 84.58 57.35 83.81 55.75 83.05 C54.9 82.64 54.04 82.24 53.16 81.82 C47.96 79.35 42.72 76.99 37.42 74.74 C34.09 73.3 30.79 71.81 27.5 70.3 C25.82 69.55 24.12 68.83 22.42 68.13 C8.69 62.48 8.69 62.48 5.98 56.89 C4.51 51.87 4.24 46.81 4.1 41.6 C3.94 37.54 3.37 33.55 2.83 29.53 C2.66 28.02 2.48 26.51 2.31 25 C1.97 21.94 1.63 18.88 1.28 15.82 C1.11 14.33 0.94 12.83 0.77 11.34 C0.69 10.66 0.61 9.98 0.53 9.28 C0.19 6.15 0 3.16 0 0 Z " fill="#FCFCFC" transform="translate(93,51)"/>
<path d="M0 0 C3.83 0.61 6.86 1.75 10.33 3.48 C11.36 4 12.4 4.52 13.47 5.05 C15.13 5.89 15.13 5.89 16.83 6.75 C17.97 7.32 19.12 7.9 20.3 8.49 C22.71 9.7 25.13 10.91 27.54 12.13 C30.64 13.69 33.74 15.25 36.84 16.8 C39.79 18.28 42.75 19.77 45.7 21.25 C46.82 21.81 47.94 22.37 49.09 22.95 C50.11 23.47 51.14 23.98 52.19 24.52 C53.1 24.97 54.01 25.43 54.94 25.9 C57 27 57 27 58 28 C58.27 29.66 58.48 31.33 58.66 33.01 C58.78 34.08 58.9 35.14 59.03 36.24 C59.22 37.99 59.22 37.99 59.41 39.77 C59.54 40.96 59.67 42.14 59.81 43.37 C60.09 45.89 60.36 48.41 60.64 50.93 C61.06 54.79 61.49 58.64 61.92 62.5 C62.19 64.95 62.45 67.39 62.72 69.83 C62.85 70.99 62.98 72.15 63.11 73.34 C63.23 74.42 63.34 75.49 63.47 76.6 C63.57 77.55 63.67 78.5 63.78 79.48 C64 82 64 82 64 86 C55.72 83.74 47.84 80.67 39.9 77.46 C38.57 76.92 37.24 76.39 35.91 75.86 C32.44 74.46 28.97 73.07 25.5 71.67 C21.95 70.24 18.39 68.81 14.84 67.38 C7.89 64.59 0.94 61.8 -6 59 C-6.11 52.39 -5.7 46.02 -4.94 39.45 C-4.83 38.48 -4.72 37.5 -4.61 36.5 C-4.38 34.46 -4.15 32.41 -3.92 30.37 C-3.56 27.25 -3.21 24.12 -2.87 21 C-2.64 19 -2.42 17.01 -2.19 15.02 C-2.04 13.62 -2.04 13.62 -1.88 12.2 C-1.4 8.09 -0.92 4.04 0 0 Z " fill="#FCFCFC" transform="translate(99,119)"/>
<path d="M0 0 C1.68 3.37 2.29 4.89 2.69 8.41 C2.79 9.28 2.89 10.14 2.99 11.03 C3.09 11.96 3.19 12.89 3.29 13.85 C3.4 14.81 3.51 15.78 3.62 16.78 C3.84 18.83 4.07 20.87 4.29 22.92 C4.62 26.03 4.97 29.13 5.32 32.23 C5.54 34.23 5.76 36.23 5.98 38.22 C6.13 39.6 6.13 39.6 6.29 41 C6.96 47.35 7.11 53.61 7 60 C0.52 63.26 -5.97 66.52 -12.45 69.78 C-15.47 71.29 -18.48 72.8 -21.49 74.32 C-24.95 76.06 -28.41 77.8 -31.87 79.53 C-32.95 80.08 -34.03 80.62 -35.15 81.19 C-36.15 81.69 -37.15 82.19 -38.18 82.71 C-39.07 83.15 -39.95 83.59 -40.86 84.05 C-43 85 -43 85 -45 85 C-46.2 82.59 -46.36 80.65 -46.66 77.97 C-46.78 76.92 -46.9 75.88 -47.03 74.8 C-47.15 73.66 -47.28 72.52 -47.41 71.35 C-47.54 70.19 -47.67 69.02 -47.81 67.82 C-48.09 65.36 -48.36 62.89 -48.64 60.42 C-49.06 56.65 -49.49 52.87 -49.92 49.09 C-50.19 46.7 -50.45 44.31 -50.72 41.91 C-50.85 40.78 -50.98 39.65 -51.11 38.48 C-51.23 37.43 -51.34 36.37 -51.47 35.29 C-51.57 34.36 -51.67 33.43 -51.78 32.48 C-52 30 -52 30 -52 26 C-34.84 17.42 -17.68 8.84 0 0 Z " fill="#FCFCFC" transform="translate(216,120)"/>
<path d="M0 0 C1.49 6.87 2.54 13.69 3.29 20.68 C3.4 21.65 3.51 22.63 3.62 23.63 C3.84 25.68 4.07 27.72 4.29 29.76 C4.63 32.89 4.97 36.01 5.32 39.14 C5.54 41.13 5.76 43.12 5.98 45.12 C6.13 46.52 6.13 46.52 6.29 47.94 C6.38 48.81 6.48 49.68 6.57 50.57 C6.66 51.33 6.74 52.09 6.82 52.88 C6.99 54.91 7 56.96 7 59 C0.24 62.39 -6.52 65.78 -13.29 69.17 C-16.43 70.74 -19.57 72.32 -22.71 73.89 C-26.31 75.7 -29.92 77.51 -33.53 79.31 C-34.66 79.88 -35.79 80.45 -36.96 81.04 C-38 81.56 -39.04 82.08 -40.11 82.61 C-41.03 83.08 -41.96 83.54 -42.91 84.01 C-45 85 -45 85 -46 85 C-47.68 72.58 -49.26 60.14 -50.69 47.69 C-50.82 46.57 -50.95 45.46 -51.09 44.32 C-51.21 43.25 -51.33 42.18 -51.45 41.07 C-51.56 40.14 -51.66 39.21 -51.77 38.25 C-52.08 33.83 -52.04 29.43 -52 25 C-45.52 21.74 -39.03 18.48 -32.55 15.22 C-29.53 13.71 -26.52 12.2 -23.51 10.68 C-20.05 8.94 -16.59 7.2 -13.13 5.47 C-12.05 4.92 -10.97 4.38 -9.85 3.81 C-8.85 3.31 -7.85 2.81 -6.82 2.29 C-5.93 1.85 -5.05 1.41 -4.14 0.95 C-2 0 -2 0 0 0 Z " fill="#FCFCFC" transform="translate(85,51)"/>
<path d="M0 0 C-0.12 1.38 -0.12 1.38 -0.24 2.78 C-0.76 9.71 -1.04 16.4 -0.58 23.34 C0.09 34.82 0.63 48.07 -6 58 C-16.28 67.89 -42.28 83 -57 83 C-57.14 76.01 -56.74 69.23 -55.94 62.29 C-55.78 60.82 -55.78 60.82 -55.61 59.32 C-55.38 57.28 -55.15 55.23 -54.92 53.18 C-54.56 50.05 -54.21 46.91 -53.87 43.77 C-53.64 41.78 -53.42 39.78 -53.19 37.79 C-53.09 36.85 -52.98 35.91 -52.88 34.94 C-52.78 34.08 -52.68 33.21 -52.57 32.31 C-52.49 31.55 -52.4 30.79 -52.31 30 C-52 28 -52 28 -51 25 C-48.99 23.69 -48.99 23.69 -46.31 22.36 C-45.31 21.86 -44.32 21.36 -43.29 20.85 C-42.2 20.32 -41.12 19.79 -40 19.24 C-38.34 18.41 -38.34 18.41 -36.65 17.57 C-33.71 16.11 -30.76 14.65 -27.81 13.2 C-24.81 11.73 -21.81 10.23 -18.81 8.74 C-14.44 6.57 -10.07 4.4 -5.69 2.25 C-4.8 1.81 -3.92 1.38 -3.01 0.93 C-1 0 -1 0 0 0 Z " fill="#FCFCFC" transform="translate(91,119)"/>
<path d="M0 0 C0.11 6.62 -0.3 13.01 -1.06 19.58 C-1.22 21.05 -1.22 21.05 -1.39 22.54 C-1.62 24.59 -1.85 26.64 -2.08 28.69 C-2.44 31.82 -2.79 34.96 -3.13 38.09 C-3.36 40.09 -3.58 42.09 -3.81 44.08 C-3.91 45.02 -4.02 45.95 -4.12 46.92 C-4.22 47.79 -4.32 48.66 -4.43 49.56 C-4.51 50.32 -4.6 51.08 -4.69 51.87 C-4.79 52.57 -4.89 53.28 -5 54 C-5.12 55.04 -5.12 55.04 -5.24 56.11 C-6.36 58.91 -8.02 59.43 -10.69 60.75 C-11.69 61.25 -12.68 61.75 -13.71 62.26 C-14.8 62.79 -15.88 63.32 -17 63.86 C-18.11 64.41 -19.21 64.96 -20.35 65.52 C-23.29 66.98 -26.24 68.42 -29.19 69.86 C-32.19 71.33 -35.19 72.82 -38.19 74.31 C-42.56 76.47 -46.93 78.63 -51.31 80.77 C-52.2 81.2 -53.08 81.63 -53.99 82.08 C-56 83 -56 83 -57 83 C-56.39 72.32 -55.23 61.74 -53.9 51.13 C-53.56 48.41 -53.23 45.69 -52.9 42.97 C-52.69 41.23 -52.47 39.49 -52.25 37.75 C-52.16 36.94 -52.06 36.14 -51.96 35.31 C-51.87 34.55 -51.77 33.8 -51.67 33.02 C-51.59 32.36 -51.51 31.7 -51.42 31.03 C-50.66 27.38 -50.03 24.76 -46.94 22.49 C-46.1 22.07 -45.25 21.66 -44.38 21.23 C-43.42 20.75 -42.47 20.27 -41.48 19.77 C-40.44 19.28 -39.41 18.78 -38.34 18.26 C-37.28 17.74 -36.22 17.21 -35.13 16.67 C-31.74 14.99 -28.34 13.34 -24.94 11.69 C-22.64 10.56 -20.35 9.42 -18.05 8.29 C-13.87 6.22 -9.68 4.16 -5.49 2.12 C-4.64 1.71 -3.8 1.3 -2.93 0.88 C-1 0 -1 0 0 0 Z " fill="#FCFCFC" transform="translate(222,54)"/>
</svg>
